<svg width="43" height="45" viewBox="0 0 43 45" fill="none" xmlns="http://www.w3.org/2000/svg">
<path d="M1 4L8 40.5L21.75 43.5L34.5 40.5L41.5 4L21.5 9L11.25 6.5L1 4Z" fill="#1E241F" stroke="black"/>
<path d="M1 4L21.5 1L41 4L21.5 8L1 4Z" fill="#FFEEB0" stroke="black"/>
<path d="M18.7793 24.9912V29.5H16.1426V16.7031H21.1348C22.0957 16.7031 22.9395 16.8789 23.666 17.2305C24.3984 17.582 24.9609 18.083 25.3535 18.7334C25.7461 19.3779 25.9424 20.1133 25.9424 20.9395C25.9424 22.1934 25.5117 23.1836 24.6504 23.9102C23.7949 24.6309 22.6084 24.9912 21.0908 24.9912H18.7793ZM18.7793 22.8555H21.1348C21.832 22.8555 22.3623 22.6914 22.7256 22.3633C23.0947 22.0352 23.2793 21.5664 23.2793 20.957C23.2793 20.3301 23.0947 19.8232 22.7256 19.4365C22.3564 19.0498 21.8467 18.8506 21.1963 18.8389H18.7793V22.8555Z" fill="#FFEEB0"/>
</svg>
