<svg width="43" height="45" viewBox="0 0 43 45" fill="none" xmlns="http://www.w3.org/2000/svg">
<path d="M1 4L8 40.5L21.75 43.5L34.5 40.5L41.5 4L21.5 9L11.25 6.5L1 4Z" fill="#1E241F" stroke="black"/>
<path d="M1 4L21.5 1L41 4L21.5 8L1 4Z" fill="#FFD6D6" stroke="black"/>
<path d="M25.8281 16.7031V25.1318C25.8281 26.5322 25.3887 27.6396 24.5098 28.4541C23.6367 29.2686 22.4414 29.6758 20.9238 29.6758C19.4297 29.6758 18.2432 29.2803 17.3643 28.4893C16.4854 27.6982 16.0371 26.6113 16.0195 25.2285V16.7031H18.6562V25.1494C18.6562 25.9873 18.8555 26.5996 19.2539 26.9863C19.6582 27.3672 20.2148 27.5576 20.9238 27.5576C22.4062 27.5576 23.1592 26.7783 23.1826 25.2197V16.7031H25.8281Z" fill="#ACFF8E"/>
</svg>
