<svg width="43" height="45" viewBox="0 0 43 45" fill="none" xmlns="http://www.w3.org/2000/svg">
<path d="M1 4L8 40.5L21.75 43.5L34.5 40.5L41.5 4L21.5 9L11.25 6.5L1 4Z" fill="#1E241F" stroke="black"/>
<path d="M1 4L21.5 1L41 4L21.5 8L1 4Z" fill="#ACFF8E" stroke="black"/>
<path d="M16.1426 29.5V16.7031H20.0801C21.2051 16.7031 22.21 16.958 23.0947 17.4678C23.9854 17.9717 24.6797 18.6924 25.1777 19.6299C25.6758 20.5615 25.9248 21.6221 25.9248 22.8115V23.4004C25.9248 24.5898 25.6787 25.6475 25.1865 26.5732C24.7002 27.499 24.0117 28.2168 23.1211 28.7266C22.2305 29.2363 21.2256 29.4941 20.1064 29.5H16.1426ZM18.7793 18.8389V27.3818H20.0537C21.085 27.3818 21.873 27.0449 22.418 26.3711C22.9629 25.6973 23.2412 24.7334 23.2529 23.4795V22.8027C23.2529 21.502 22.9834 20.5176 22.4443 19.8496C21.9053 19.1758 21.1172 18.8389 20.0801 18.8389H18.7793Z" fill="#ACFF8E"/>
</svg>
